<mxfile host="65bd71144e" pages="2">
    <diagram id="JB9WzNM9PvJFt2jgl7F_" name="Página-1">
        <mxGraphModel dx="628" dy="71" grid="1" gridSize="10" guides="1" tooltips="1" connect="1" arrows="1" fold="1" page="1" pageScale="1" pageWidth="1169" pageHeight="827" math="1" shadow="0">
            <root>
                <object label="" id="0">
                    <mxCell/>
                </object>
                <mxCell id="1" parent="0"/>
                <UserObject label="Homo" lucidchartObjectId="aeGlAER9u5.M" id="ZZtYwKiFHnZnZaZ_22vF-1">
                    <mxCell style="html=1;whiteSpace=wrap;strokeColor=none;fontSize=19;fontColor=#000000;align=center;spacing=0;strokeOpacity=100;fillOpacity=100;fillColor=#ffffff;" parent="1" vertex="1" zOrder="0">
                        <mxGeometry x="5352" y="660" width="144" height="36" as="geometry"/>
                    </mxCell>
                </UserObject>
                <UserObject label="Inicio del Sistema Solar" lucidchartObjectId="eNPj2RC3dru8" id="ZZtYwKiFHnZnZaZ_22vF-3">
                    <mxCell style="html=1;whiteSpace=wrap;strokeColor=none;fontSize=19;fontColor=#000000;align=center;spacing=0;strokeOpacity=100;fillOpacity=100;fillColor=#ffffff;" parent="1" vertex="1" zOrder="0">
                        <mxGeometry x="1950" y="300" width="144" height="40" as="geometry"/>
                    </mxCell>
                </UserObject>
                <UserObject label="&lt;div style=&quot;font-size:13px;color:#000000;text-align: center;&quot;&gt; 300 a 400 mil años&#10;&lt;/div&gt;&lt;div style=&quot;font-size:13px;color:#000000;text-align: center;&quot;&gt;&lt;/div&gt;&lt;div style=&quot;font-size:14px;color:#000000;text-align: center;&quot;&gt;Rango temporal de la teoria del Big Bang&lt;/div&gt;" lucidchartObjectId="ZJNjvHm~TXy5" id="ZZtYwKiFHnZnZaZ_22vF-4">
                    <mxCell style="html=1;whiteSpace=wrap;strokeColor=none;overflow=width;html=1;spacing=0;strokeOpacity=100;fillOpacity=100;fillColor=#ffffff;" parent="1" vertex="1" zOrder="0">
                        <mxGeometry x="929.5" y="505" width="144" height="50" as="geometry"/>
                    </mxCell>
                </UserObject>
                <UserObject label="&lt;div style=&quot;font-size: 17px ; color: #000000 ; text-align: center&quot;&gt;-4 600 Millones de años&amp;nbsp;&lt;/div&gt;&lt;div style=&quot;font-size: 17px ; color: #000000 ; text-align: center&quot;&gt;&lt;a href=&quot;https://es.wikipedia.org/wiki/Colapso_gravitacional&quot; style=&quot;font-size: 12px&quot;&gt;&lt;div style=&quot;font-size: 19px ; color: rgb(12 , 124 , 186) ; font-weight: bold ; display: inline&quot;&gt;C&lt;/div&gt;&lt;/a&gt;&lt;/div&gt;&lt;a href=&quot;https://es.wikipedia.org/wiki/Colapso_gravitacional&quot; style=&quot;font-size: 19px ; font-weight: 700 ; color: rgb(12 , 124 , 186)&quot;&gt;olapso&lt;/a&gt;&amp;nbsp;&lt;span style=&quot;font-size: 19px ; font-weight: bold ; text-align: center&quot;&gt;&lt;a href=&quot;https://es.wikipedia.org/wiki/Colapso_gravitacional&quot; style=&quot;color: rgb(12 , 124 , 186)&quot;&gt;gravitacional&lt;/a&gt;&lt;font color=&quot;#faa700&quot;&gt;&amp;nbsp;&lt;/font&gt;&lt;/span&gt;&lt;span style=&quot;font-size: 19px ; color: #202122 ; text-align: center&quot;&gt;de una pequeña parte de una &lt;/span&gt;&lt;span style=&quot;font-size: 19px ; color: #0b0080 ; text-align: center&quot;&gt;&lt;a href=&quot;https://es.wikipedia.org/wiki/Nube_molecular&quot;&gt;nube molecular&lt;/a&gt;&amp;nbsp;&lt;/span&gt;&lt;span style=&quot;font-size: 19px ; color: #202122 ; text-align: center&quot;&gt;gigante.&lt;/span&gt;" link="https://es.wikipedia.org/wiki/Colapso_gravitacional" lucidchartObjectId="BBPjT0GJGUlW" id="ZZtYwKiFHnZnZaZ_22vF-5">
                    <mxCell style="html=1;whiteSpace=wrap;strokeColor=none;overflow=width;html=1;spacing=0;strokeOpacity=100;fillOpacity=100;fillColor=#ffffff;" parent="1" vertex="1" zOrder="0">
                        <mxGeometry x="1840" y="504" width="200" height="166" as="geometry"/>
                    </mxCell>
                </UserObject>
                <UserObject label="-4 550 Millones de años, inicio del planeta tierra" lucidchartObjectId="EQPjtcTZrxuJ" id="ZZtYwKiFHnZnZaZ_22vF-6">
                    <mxCell style="html=1;whiteSpace=wrap;strokeColor=none;fontSize=19;fontColor=#000000;align=center;spacing=0;strokeOpacity=100;fillOpacity=100;fillColor=#ffffff;" parent="1" vertex="1" zOrder="0">
                        <mxGeometry x="2076" y="504" width="144" height="36" as="geometry"/>
                    </mxCell>
                </UserObject>
                <UserObject label="-13 800 millones de años" lucidchartObjectId="gHNjWeNiMBLt" id="ZZtYwKiFHnZnZaZ_22vF-7">
                    <mxCell style="html=1;whiteSpace=wrap;strokeColor=none;fontSize=17;fontColor=#000000;align=center;spacing=0;strokeOpacity=100;fillOpacity=100;fillColor=#ffffff;" parent="1" vertex="1" zOrder="0">
                        <mxGeometry x="730" y="524" width="144" height="36" as="geometry"/>
                    </mxCell>
                </UserObject>
                <UserObject label="-3 800 millones de años" lucidchartObjectId="o-AlYc1.2Yv9" id="ZZtYwKiFHnZnZaZ_22vF-8">
                    <mxCell style="html=1;whiteSpace=wrap;strokeColor=none;fontSize=19;fontColor=#000000;align=center;spacing=0;strokeOpacity=100;fillOpacity=100;fillColor=#ffffff;" parent="1" vertex="1" zOrder="0">
                        <mxGeometry x="2380" y="492" width="144" height="36" as="geometry"/>
                    </mxCell>
                </UserObject>
                <UserObject label="&lt;div style=&quot;font-size:17px;color:#000000;text-align: center;&quot;&gt;-13 600 millones de años.&#10;&lt;/div&gt;&lt;div style=&quot;font-size:17px;color:#000000;text-align: center;&quot;&gt;Formación de las primeras estrellas a partir de hidrogeno y helio, primeros elementos.&lt;/div&gt;" lucidchartObjectId="g4NjbGTYKE2O" id="ZZtYwKiFHnZnZaZ_22vF-9">
                    <mxCell style="html=1;whiteSpace=wrap;strokeColor=none;overflow=width;html=1;spacing=0;strokeOpacity=100;fillOpacity=100;fillColor=#ffffff;" parent="1" vertex="1" zOrder="0">
                        <mxGeometry x="792" y="480" width="144" height="36" as="geometry"/>
                    </mxCell>
                </UserObject>
                <UserObject label="&lt;a href=&quot;https://www.muyinteresante.es/revista-muy/noticias-muy/articulo/la-edad-oscura-del-cosmos&quot;&gt;&lt;div style=&quot;font-size: 13px ; color: #0000ee ; text-decoration: underline ; text-align: left&quot;&gt;https://www.muyinteresante.es/revista-muy/noticias-muy/articulo/la-edad-oscura-del-cosmos&#10;&lt;/div&gt;&lt;/a&gt;&lt;a href=&quot;https://www.youtube.com/watch?v=K1yGOewtx5M&quot;&gt;&lt;div style=&quot;font-size: 13px ; color: #0000ee ; text-decoration: underline ; text-align: left&quot;&gt;https://www.youtube.com/watch?v=K1yGOewtx5M&lt;/div&gt;&lt;/a&gt;" link="https://www.muyinteresante.es/revista-muy/noticias-muy/articulo/la-edad-oscura-del-cosmos" lucidchartObjectId="zpBjggZ6uRcf" id="ZZtYwKiFHnZnZaZ_22vF-10">
                    <mxCell style="html=1;whiteSpace=wrap;strokeColor=none;overflow=width;html=1;spacing=0;strokeOpacity=100;fillOpacity=100;fillColor=#ffffff;" parent="1" vertex="1" zOrder="0">
                        <mxGeometry x="192" y="760" width="608" height="38" as="geometry"/>
                    </mxCell>
                </UserObject>
                <UserObject label="&lt;a href=&quot;https://www.youtube.com/watch?v=vHd8GJopQxY&quot;&gt;&lt;div style=&quot;font-size: 13px ; color: #0000ee ; text-decoration: underline ; text-align: left&quot;&gt;https://www.youtube.com/watch?v=vHd8GJopQxY&#10;&lt;/div&gt;&lt;/a&gt;&lt;a href=&quot;https://www.lavanguardia.com/ciencia/planeta-tierra/20181210/453469030889/como-empezo-vida-tierra-origen-evolucion.html&quot;&gt;&lt;div style=&quot;font-size: 13px ; color: #0000ee ; text-decoration: underline ; text-align: left&quot;&gt;https://www.lavanguardia.com/ciencia/planeta-tierra/20181210/453469030889/como-empezo-vida-tierra-origen-evolucion.html&#10;&lt;/div&gt;&lt;/a&gt;&lt;a href=&quot;https://www.clarin.com/cultura/5-teorias-sobre-el-origen-de-la-vida-como-surgio-y-evoluciono-el-ser-vivo-_0_e91XDRZ-.html&quot;&gt;&lt;div style=&quot;font-size: 13px ; color: #0000ee ; text-decoration: underline ; text-align: left&quot;&gt;https://www.clarin.com/cultura/5-teorias-sobre-el-origen-de-la-vida-como-surgio-y-evoluciono-el-ser-vivo-_0_e91XDRZ-.html&lt;/div&gt;&lt;/a&gt;" lucidchartObjectId="xhBlpCcjMlbB" id="ZZtYwKiFHnZnZaZ_22vF-11">
                    <mxCell style="html=1;whiteSpace=wrap;strokeColor=none;overflow=width;html=1;spacing=0;verticalAlign=middle;strokeOpacity=100;fillOpacity=100;fillColor=#ffffff;" parent="1" vertex="1" zOrder="0">
                        <mxGeometry x="2388" y="780" width="790" height="47" as="geometry"/>
                    </mxCell>
                </UserObject>
                <UserObject label="&lt;div style=&quot;font-size: 15px ; color: #000000 ; text-align: left&quot;&gt;• Teoria de la generación espontanea&lt;br&gt;&lt;/div&gt;&lt;div style=&quot;font-size: 15px ; color: #000000 ; text-align: left&quot;&gt;• 1668: Francesco de Readi Experimento de la Carne y las Moscas&lt;br&gt;&lt;/div&gt;&lt;div style=&quot;font-size: 15px ; color: #000000 ; text-align: left&quot;&gt;• 1859: Luis Pasteur, Experimento de Matrases con cuello de Cisne&lt;br&gt;&lt;/div&gt;&lt;div style=&quot;font-size: 15px ; color: #000000 ; text-align: left&quot;&gt;• 1924: Alexandr Oparin Teoria del El Caldo Primitivo, expuesto en su publicación &quot;El Origen de la Vida&quot; expone una teoría quimiosintética del origen de la vida;&lt;/div&gt;&lt;span style=&quot;font-size: 12px ; color: #222222 ; text-align: left&quot;&gt;&lt;span style=&quot;font-size: 12px ; color: #222222 ; text-align: left&quot;&gt;Oparin afirmó que la vida en la Tierra surgió a partir de microorganismos heterotróficos y mesotérmicos:&lt;/span&gt;&lt;span style=&quot;font-size: 12px ; color: #222222 ; font-weight: bold ; text-align: left&quot;&gt;bacterias que utilizan compuestos orgánicos para obtener su energía y viven en temperaturas medias.&lt;/span&gt;&lt;span style=&quot;font-size: 15px ; color: #000000 ; text-align: left&quot;&gt;&lt;/span&gt;&lt;div style=&quot;font-size: 15px ; color: #000000 ; text-align: left&quot;&gt;• 1953: Experimento Miller y Urey, simulación de la atmosfera primitiva que tuvo como resultado generacioón de moléculas orgánicas y aminoacidos&lt;br&gt;&lt;/div&gt;&lt;div style=&quot;font-size: 15px ; color: #000000 ; text-align: left&quot;&gt;&lt;/div&gt;&lt;div style=&quot;font-size: 19px ; color: #000000 ; text-align: left&quot;&gt; &lt;/div&gt;&lt;/span&gt;" lucidchartObjectId="OiBlx9GE9rtF" id="ZZtYwKiFHnZnZaZ_22vF-12">
                    <mxCell style="html=1;whiteSpace=wrap;strokeColor=none;overflow=width;html=1;spacing=0;verticalAlign=middle;strokeOpacity=100;fillOpacity=100;fillColor=#ffffff;" parent="1" vertex="1" zOrder="0">
                        <mxGeometry x="2388" y="530" width="491" height="250" as="geometry"/>
                    </mxCell>
                </UserObject>
                <UserObject label="&lt;div style=&quot;font-size:19px;color:#000000;text-align: center;&quot;&gt;-40 Millones de Años&#10;&lt;/div&gt;&lt;div style=&quot;font-size:19px;color:#000000;text-align: center;&quot;&gt; Monos antropoides&lt;/div&gt;" lucidchartObjectId="tJDl0vUcO.bL" id="ZZtYwKiFHnZnZaZ_22vF-13">
                    <mxCell style="html=1;whiteSpace=wrap;strokeColor=none;overflow=width;html=1;spacing=0;strokeOpacity=100;fillOpacity=100;fillColor=#ffffff;" parent="1" vertex="1" zOrder="0">
                        <mxGeometry x="3840" y="516" width="144" height="94" as="geometry"/>
                    </mxCell>
                </UserObject>
                <UserObject label="&lt;div style=&quot;font-size:19px;color:#000000;text-align: center;&quot;&gt;Homininos &#10;&lt;/div&gt;&lt;div style=&quot;font-size:19px;color:#000000;text-align: center;&quot;&gt;Homininae&lt;/div&gt;" lucidchartObjectId="KMElRMAVP7w0" id="ZZtYwKiFHnZnZaZ_22vF-14">
                    <mxCell style="html=1;whiteSpace=wrap;strokeColor=none;overflow=width;html=1;spacing=0;strokeOpacity=100;fillOpacity=100;fillColor=#ffffff;" parent="1" vertex="1" zOrder="0">
                        <mxGeometry x="4572" y="528" width="144" height="42" as="geometry"/>
                    </mxCell>
                </UserObject>
                <UserObject label="Homininis" lucidchartObjectId="xTElzgzL7tsq" id="ZZtYwKiFHnZnZaZ_22vF-16">
                    <mxCell style="html=1;whiteSpace=wrap;strokeColor=none;fontSize=19;fontColor=#000000;align=center;spacing=0;strokeOpacity=100;fillOpacity=100;fillColor=#ffffff;" parent="1" vertex="1" zOrder="0">
                        <mxGeometry x="4956" y="588" width="144" height="36" as="geometry"/>
                    </mxCell>
                </UserObject>
                <UserObject label="Homo Herectus" lucidchartObjectId="GsGl6khg19ri" id="ZZtYwKiFHnZnZaZ_22vF-17">
                    <mxCell style="html=1;whiteSpace=wrap;strokeColor=none;fontSize=19;fontColor=#000000;align=center;spacing=0;strokeOpacity=100;fillOpacity=100;fillColor=#ffffff;" parent="1" vertex="1" zOrder="0">
                        <mxGeometry x="5506" y="657" width="144" height="36" as="geometry"/>
                    </mxCell>
                </UserObject>
                <UserObject label="&lt;div style=&quot;font-size:19px;color:#000000;text-align: center;&quot;&gt;Prosimio&#10;&lt;/div&gt;&lt;div style=&quot;font-size:19px;color:#000000;text-align: center;&quot;&gt;Primeros Primates&lt;/div&gt;" lucidchartObjectId="JADlygpcU91t" id="ZZtYwKiFHnZnZaZ_22vF-19">
                    <mxCell style="html=1;whiteSpace=wrap;strokeColor=none;overflow=width;html=1;spacing=0;strokeOpacity=100;fillOpacity=100;fillColor=#ffffff;" parent="1" vertex="1" zOrder="0">
                        <mxGeometry x="3750" y="604" width="144" height="76" as="geometry"/>
                    </mxCell>
                </UserObject>
                <UserObject label="Paranthropus" lucidchartObjectId="UdGljvcnb32n" id="ZZtYwKiFHnZnZaZ_22vF-21">
                    <mxCell style="html=1;whiteSpace=wrap;strokeColor=none;fontSize=19;fontColor=#000000;align=center;spacing=0;strokeOpacity=100;fillOpacity=100;fillColor=#ffffff;" parent="1" vertex="1" zOrder="0">
                        <mxGeometry x="5216" y="455" width="144" height="36" as="geometry"/>
                    </mxCell>
                </UserObject>
                <UserObject label="Transformación y diversificación de las especies" lucidchartObjectId="dqClfqUH..1W" id="ZZtYwKiFHnZnZaZ_22vF-22">
                    <mxCell style="html=1;whiteSpace=wrap;strokeColor=none;fontSize=19;fontColor=#000000;align=center;spacing=0;strokeOpacity=100;fillOpacity=100;fillColor=#ffffff;" parent="1" vertex="1" zOrder="0">
                        <mxGeometry x="2640" y="100" width="443" height="36" as="geometry"/>
                    </mxCell>
                </UserObject>
                <UserObject label="Chimpanzee" lucidchartObjectId="NNEllC-3oZk." id="ZZtYwKiFHnZnZaZ_22vF-23">
                    <mxCell style="html=1;whiteSpace=wrap;strokeColor=none;fontSize=19;fontColor=#000000;align=center;spacing=0;strokeOpacity=100;fillOpacity=100;fillColor=#ffffff;" parent="1" vertex="1" zOrder="0">
                        <mxGeometry x="4840" y="480" width="144" height="36" as="geometry"/>
                    </mxCell>
                </UserObject>
                <UserObject label="Australopithecus" lucidchartObjectId="2dGlX9cKZHEG" id="ZZtYwKiFHnZnZaZ_22vF-24">
                    <mxCell style="html=1;whiteSpace=wrap;strokeColor=none;fontSize=19;fontColor=#000000;align=center;spacing=0;strokeOpacity=100;fillOpacity=100;fillColor=#ffffff;" parent="1" vertex="1" zOrder="0">
                        <mxGeometry x="5233" y="499" width="144" height="36" as="geometry"/>
                    </mxCell>
                </UserObject>
                <UserObject label="-3 550 millones de años" lucidchartObjectId="tTPjX6x10jMf" id="ZZtYwKiFHnZnZaZ_22vF-25">
                    <mxCell style="html=1;whiteSpace=wrap;strokeColor=none;fontSize=19;fontColor=#000000;align=center;spacing=0;strokeOpacity=100;fillOpacity=100;fillColor=#ffffff;" parent="1" vertex="1" zOrder="0">
                        <mxGeometry x="2560" y="492" width="144" height="36" as="geometry"/>
                    </mxCell>
                </UserObject>
                <UserObject label="&lt;span style=&quot;font-size:19px;text-align: center;&quot;&gt;&lt;span style=&quot;font-size:19px;text-align: center;&quot;&gt;-55 Millones de A&lt;/span&gt;&lt;span style=&quot;font-size:19px;color:#000000;text-align: center;&quot;&gt;ños:&#10;Protoprimates&lt;/span&gt;&lt;/span&gt;" lucidchartObjectId="bsDl8NNpJouc" id="ZZtYwKiFHnZnZaZ_22vF-26">
                    <mxCell style="html=1;whiteSpace=wrap;strokeColor=none;overflow=width;html=1;spacing=0;fillColor=#ffffff;" parent="1" vertex="1" zOrder="0">
                        <mxGeometry x="3672" y="504" width="144" height="66" as="geometry"/>
                    </mxCell>
                </UserObject>
                <mxCell id="fuDI2OjvkkBF3Bqe-GBY-2" value="" style="edgeStyle=orthogonalEdgeStyle;rounded=0;orthogonalLoop=1;jettySize=auto;html=1;" parent="1" source="ZZtYwKiFHnZnZaZ_22vF-27" target="ZZtYwKiFHnZnZaZ_22vF-32" edge="1">
                    <mxGeometry relative="1" as="geometry"/>
                </mxCell>
                <UserObject label="&lt;div style=&quot;color: rgb(0 , 0 , 0) ; text-align: center&quot;&gt;&lt;span id=&quot;docs-internal-guid-8299bd12-7fff-6453-aa07-45d5d7776ab9&quot;&gt;&lt;font style=&quot;font-size: 24px&quot;&gt;&lt;p dir=&quot;ltr&quot; style=&quot;line-height: 1.38 ; margin-top: 0pt ; margin-bottom: 0pt&quot;&gt;&lt;span style=&quot;font-family: &amp;#34;arial&amp;#34; ; background-color: rgb(255 , 255 , 255) ; vertical-align: baseline&quot;&gt;Inicio del Universo:&lt;/span&gt;&lt;/p&gt;&lt;p dir=&quot;ltr&quot; style=&quot;line-height: 1.38 ; margin-top: 0pt ; margin-bottom: 0pt&quot;&gt;&lt;span style=&quot;font-family: &amp;#34;arial&amp;#34; ; background-color: rgb(255 , 255 , 255) ; vertical-align: baseline&quot;&gt;Big Bang&lt;/span&gt;&lt;/p&gt;&lt;p dir=&quot;ltr&quot; style=&quot;line-height: 1.38 ; margin-top: 0pt ; margin-bottom: 0pt&quot;&gt;&lt;span style=&quot;font-family: &amp;#34;arial&amp;#34; ; background-color: rgb(255 , 255 , 255) ; vertical-align: baseline&quot;&gt;Formación de la Materia, el Tiempo y el Espacio.&lt;/span&gt;&lt;/p&gt;&lt;p dir=&quot;ltr&quot; style=&quot;line-height: 1.38 ; margin-top: 0pt ; margin-bottom: 0pt&quot;&gt;&lt;span style=&quot;font-family: &amp;#34;arial&amp;#34; ; background-color: rgb(255 , 255 , 255) ; vertical-align: baseline&quot;&gt;10-43 segundos&lt;/span&gt;&lt;/p&gt;&lt;/font&gt;&lt;/span&gt;&lt;/div&gt;" lucidchartObjectId="YZAjfOCufnzK" id="ZZtYwKiFHnZnZaZ_22vF-27">
                    <mxCell style="html=1;whiteSpace=wrap;strokeColor=none;overflow=width;html=1;spacing=0;strokeOpacity=100;fillOpacity=100;fillColor=#ffffff;fontSize=26;" parent="1" vertex="1" zOrder="0">
                        <mxGeometry x="690.5" y="140" width="239" height="212" as="geometry"/>
                    </mxCell>
                </UserObject>
                <UserObject label="LUCA:" lucidchartObjectId="GgBlEgxM~FUp" id="ZZtYwKiFHnZnZaZ_22vF-28">
                    <mxCell style="html=1;whiteSpace=wrap;strokeColor=none;fontSize=19;fontColor=#000000;align=center;spacing=0;strokeOpacity=100;fillOpacity=100;fillColor=#ffffff;" parent="1" vertex="1" zOrder="0">
                        <mxGeometry x="2532" y="246" width="144" height="36" as="geometry"/>
                    </mxCell>
                </UserObject>
                <UserObject label="&lt;font style=&quot;font-size: 24px&quot;&gt;Formación de los primero átomos  estables, y transparentacion del universo&lt;/font&gt;" lucidchartObjectId="sUNj4bg7h0qw" id="ZZtYwKiFHnZnZaZ_22vF-29">
                    <mxCell style="html=1;whiteSpace=wrap;strokeColor=none;fontSize=17;fontColor=#000000;align=center;spacing=0;strokeOpacity=100;fillOpacity=100;fillColor=#ffffff;" parent="1" vertex="1" zOrder="0">
                        <mxGeometry x="1169" y="200" width="144" height="130" as="geometry"/>
                    </mxCell>
                </UserObject>
                <mxCell id="ZZtYwKiFHnZnZaZ_22vF-32" value="" style="strokeColor=none;fontSize=11;spacing=3;strokeOpacity=100;fillOpacity=100;rotation=90;html=1;fillColor=none;" parent="1" vertex="1" zOrder="6">
                    <mxGeometry x="977.5" y="272" width="58.13" height="413" as="geometry"/>
                </mxCell>
                <mxCell id="ZZtYwKiFHnZnZaZ_22vF-33" value="" style="shape=curlyBracket;rounded=1;flipH=1;fontSize=11;spacing=3;strokeColor=#0c7cba;strokeOpacity=100;fillOpacity=100;rotation=90;fillColor=#0c7cba;" parent="ZZtYwKiFHnZnZaZ_22vF-32" vertex="1">
                    <mxGeometry x="4.75" y="4.75" width="51.63" height="403.5" as="geometry"/>
                </mxCell>
                <mxCell id="ZZtYwKiFHnZnZaZ_22vF-34" value="" style="strokeColor=none;fillColor=none;fontSize=11;spacing=3;strokeOpacity=100;fillOpacity=100;rotation=90;" parent="ZZtYwKiFHnZnZaZ_22vF-32" vertex="1">
                    <mxGeometry x="51.625" width="-3.625" height="413" as="geometry"/>
                </mxCell>
                <UserObject label="" lucidchartObjectId="TGNj3NUe_eZS" id="ZZtYwKiFHnZnZaZ_22vF-35">
                    <mxCell style="html=1;jettySize=18;fontSize=11;strokeOpacity=100;strokeWidth=3;rounded=1;arcSize=0;edgeStyle=elbowEdgeStyle;startArrow=none;;endArrow=block;endFill=1;;strokeColor=#0C7CBA;" parent="ZZtYwKiFHnZnZaZ_22vF-32" edge="1">
                        <mxGeometry width="100" height="100" relative="1" as="geometry">
                            <Array as="points">
                                <mxPoint x="-172" y="223"/>
                            </Array>
                            <mxPoint x="-172" y="243" as="sourcePoint"/>
                            <mxPoint x="-172" y="193" as="targetPoint"/>
                        </mxGeometry>
                    </mxCell>
                </UserObject>
                <UserObject label="" lucidchartObjectId="B3NjIDZoPLYf" id="ZZtYwKiFHnZnZaZ_22vF-39">
                    <mxCell style="html=1;jettySize=18;fontSize=11;strokeColor=#0c7cba;strokeOpacity=100;strokeWidth=3;rounded=1;arcSize=0;edgeStyle=elbowEdgeStyle;startArrow=none;;endArrow=block;endFill=1;;" parent="1" edge="1">
                        <mxGeometry width="100" height="100" relative="1" as="geometry">
                            <Array as="points">
                                <mxPoint x="863.5" y="447.5"/>
                            </Array>
                            <mxPoint x="864" y="470" as="sourcePoint"/>
                            <mxPoint x="863.5" y="427.5" as="targetPoint"/>
                        </mxGeometry>
                    </mxCell>
                </UserObject>
                <UserObject label="&lt;font style=&quot;font-size: 24px&quot;&gt;Exploción de las primeras estrellas y formación del resto de elementos, formación de nubes de gas interestelar y galaxias.&lt;/font&gt;" lucidchartObjectId="_pOjOAgq76b9" id="ZZtYwKiFHnZnZaZ_22vF-41">
                    <mxCell style="html=1;whiteSpace=wrap;strokeColor=none;fontSize=20;fontColor=#000000;align=center;spacing=0;strokeOpacity=100;fillOpacity=100;fillColor=#ffffff;" parent="1" vertex="1" zOrder="12">
                        <mxGeometry x="977.5" y="40" width="144" height="280" as="geometry"/>
                    </mxCell>
                </UserObject>
                <UserObject label="" lucidchartObjectId="tMPjw~epYa~I" id="ZZtYwKiFHnZnZaZ_22vF-43">
                    <mxCell style="html=1;jettySize=18;fontSize=11;strokeColor=#0c7cba;strokeOpacity=100;strokeWidth=3;rounded=1;arcSize=0;edgeStyle=elbowEdgeStyle;startArrow=none;;endArrow=block;endFill=1;;" parent="1" edge="1">
                        <mxGeometry width="100" height="100" relative="1" as="geometry">
                            <Array as="points">
                                <mxPoint x="1930" y="374"/>
                            </Array>
                            <mxPoint x="2112" y="350" as="targetPoint"/>
                            <mxPoint x="1930" y="404" as="sourcePoint"/>
                        </mxGeometry>
                    </mxCell>
                </UserObject>
                <UserObject label="" lucidchartObjectId="hVPj6qupidzv" id="ZZtYwKiFHnZnZaZ_22vF-46">
                    <mxCell style="html=1;whiteSpace=wrap;shape=singleArrow;arrowWidth=0.5;arrowSize=0.3;fontSize=11;align=center;spacing=3;strokeColor=#a3d977;strokeOpacity=100;fillOpacity=100;rotation=90;fillColor=#7ab648;" parent="1" vertex="1" zOrder="18">
                        <mxGeometry x="2497" y="288" width="96" height="48" as="geometry"/>
                    </mxCell>
                </UserObject>
                <mxCell id="ZZtYwKiFHnZnZaZ_22vF-48" value="" style="group;spacingLeft=8;align=left;spacing=0;strokeColor=none;fontSize=11;strokeOpacity=100;fillOpacity=0;rotation=90;fillColor=#ffffff;strokeWidth=3;verticalAlign=middle;html=1;" parent="1" vertex="1" zOrder="20">
                    <mxGeometry x="2532" y="346" width="77" height="146" as="geometry"/>
                </mxCell>
                <mxCell id="ZZtYwKiFHnZnZaZ_22vF-49" value="" style="shape=partialRectangle;right=0;fillColor=none;fontSize=11;align=center;strokeColor=#0c7cba;rotation=90;strokeWidth=3;" parent="ZZtYwKiFHnZnZaZ_22vF-48" vertex="1">
                    <mxGeometry width="8" height="196" relative="1" as="geometry"/>
                </mxCell>
                <UserObject label="" lucidchartObjectId="SNHlOegvlr-H" id="ZZtYwKiFHnZnZaZ_22vF-76">
                    <mxCell style="html=1;jettySize=18;fontSize=11;strokeColor=#0c7cba;strokeOpacity=100;rounded=1;arcSize=0;edgeStyle=elbowEdgeStyle;startArrow=none;;endArrow=block;endFill=1;;strokeWidth=3;" parent="ZZtYwKiFHnZnZaZ_22vF-48" edge="1">
                        <mxGeometry width="100" height="100" relative="1" as="geometry">
                            <Array as="points"/>
                            <mxPoint x="108" y="127" as="sourcePoint"/>
                            <mxPoint x="108" y="75" as="targetPoint"/>
                        </mxGeometry>
                    </mxCell>
                </UserObject>
                <UserObject label="" lucidchartObjectId="agBl6cQVsn.w" id="ZZtYwKiFHnZnZaZ_22vF-50">
                    <mxCell style="html=1;jettySize=18;fontSize=11;strokeColor=#0c7cba;strokeOpacity=100;strokeWidth=3;rounded=1;arcSize=0;edgeStyle=elbowEdgeStyle;startArrow=none;;endArrow=block;endFill=1;;" parent="1" edge="1">
                        <mxGeometry width="100" height="100" relative="1" as="geometry">
                            <Array as="points"/>
                            <mxPoint x="2604" y="276" as="sourcePoint"/>
                            <mxPoint x="2604" y="370" as="targetPoint"/>
                        </mxGeometry>
                    </mxCell>
                </UserObject>
                <UserObject label="" lucidchartObjectId="opCl5Sx~RUUa" id="ZZtYwKiFHnZnZaZ_22vF-51">
                    <mxCell style="html=1;jettySize=18;fontSize=11;strokeColor=#0c7cba;strokeOpacity=100;strokeWidth=3;rounded=1;arcSize=0;edgeStyle=orthogonalEdgeStyle;startArrow=none;;endArrow=block;endFill=1;;exitX=0.5016263213861255;exitY=0;exitPerimeter=1;entryX=0;entryY=0.5;entryPerimeter=1;" parent="1" source="ZZtYwKiFHnZnZaZ_22vF-28" target="ZZtYwKiFHnZnZaZ_22vF-54" edge="1">
                        <mxGeometry width="100" height="100" relative="1" as="geometry">
                            <Array as="points"/>
                        </mxGeometry>
                    </mxCell>
                </UserObject>
                <UserObject label="" lucidchartObjectId="jKCltSHu1B0z" id="ZZtYwKiFHnZnZaZ_22vF-52">
                    <mxCell style="html=1;jettySize=18;fontSize=11;strokeColor=#0c7cba;strokeOpacity=100;strokeWidth=3;rounded=1;arcSize=0;edgeStyle=elbowEdgeStyle;startArrow=none;;endArrow=block;endFill=1;;exitX=1;exitY=0.5;exitPerimeter=1;" parent="1" source="ZZtYwKiFHnZnZaZ_22vF-54" edge="1">
                        <mxGeometry width="100" height="100" relative="1" as="geometry">
                            <Array as="points"/>
                            <mxPoint x="3504" y="135" as="targetPoint"/>
                        </mxGeometry>
                    </mxCell>
                </UserObject>
                <UserObject label="Surgimiento de la vida" lucidchartObjectId="KVPj2XszaOzf" id="ZZtYwKiFHnZnZaZ_22vF-53">
                    <mxCell style="html=1;whiteSpace=wrap;strokeColor=none;fontSize=19;fontColor=#000000;align=center;spacing=0;strokeOpacity=100;fillOpacity=100;fillColor=#ffffff;" parent="1" vertex="1" zOrder="23">
                        <mxGeometry x="2472" y="180" width="144" height="48" as="geometry"/>
                    </mxCell>
                </UserObject>
                <UserObject label="" lucidchartObjectId="YCCl17sxeq_l" id="ZZtYwKiFHnZnZaZ_22vF-54">
                    <mxCell style="html=1;whiteSpace=wrap;shape=image;fontSize=11;spacing=0;strokeColor=none;strokeOpacity=100;strokeWidth=0;image=https://images.app.lucidchart.com/images/790ee7e5-0ae7-48ef-991c-06d3c4c12fde/content;" parent="1" vertex="1" zOrder="24">
                        <mxGeometry x="3132" y="5" width="258" height="259" as="geometry"/>
                    </mxCell>
                </UserObject>
                <UserObject label="" lucidchartObjectId="rNEldrm4E6bs" id="ZZtYwKiFHnZnZaZ_22vF-58">
                    <mxCell style="html=1;jettySize=18;fontSize=11;strokeColor=#0c7cba;strokeOpacity=100;strokeWidth=3;rounded=1;arcSize=0;edgeStyle=elbowEdgeStyle;startArrow=none;;endArrow=block;endFill=1;;exitX=1;exitY=0.44855200923483;exitPerimeter=1;" parent="1" source="ZZtYwKiFHnZnZaZ_22vF-14" edge="1">
                        <mxGeometry width="100" height="100" relative="1" as="geometry">
                            <Array as="points"/>
                            <mxPoint x="4848" y="504" as="targetPoint"/>
                        </mxGeometry>
                    </mxCell>
                </UserObject>
                <UserObject label="" lucidchartObjectId="jTElqhD-zSJV" id="ZZtYwKiFHnZnZaZ_22vF-59">
                    <mxCell style="html=1;jettySize=18;fontSize=11;strokeColor=#0c7cba;strokeOpacity=100;strokeWidth=3;rounded=1;arcSize=0;edgeStyle=elbowEdgeStyle;startArrow=none;;endArrow=block;endFill=1;;" parent="1" edge="1">
                        <mxGeometry width="100" height="100" relative="1" as="geometry">
                            <Array as="points"/>
                            <mxPoint x="4782" y="550" as="sourcePoint"/>
                            <mxPoint x="4956" y="612" as="targetPoint"/>
                        </mxGeometry>
                    </mxCell>
                </UserObject>
                <UserObject label="" lucidchartObjectId="Q9Fl2Pj0arcg" id="ZZtYwKiFHnZnZaZ_22vF-60">
                    <mxCell style="html=1;jettySize=18;fontSize=11;strokeColor=#0c7cba;strokeOpacity=100;strokeWidth=3;rounded=1;arcSize=0;edgeStyle=elbowEdgeStyle;startArrow=none;;endArrow=block;endFill=1;;exitX=1;exitY=0.37693125664602767;exitPerimeter=1;" parent="1" source="ZZtYwKiFHnZnZaZ_22vF-16" edge="1">
                        <mxGeometry width="100" height="100" relative="1" as="geometry">
                            <Array as="points"/>
                            <mxPoint x="5220" y="516" as="targetPoint"/>
                        </mxGeometry>
                    </mxCell>
                </UserObject>
                <UserObject label="" lucidchartObjectId="w-FlcUw6NRnW" id="ZZtYwKiFHnZnZaZ_22vF-61">
                    <mxCell style="html=1;jettySize=18;fontSize=11;strokeColor=#0c7cba;strokeOpacity=100;strokeWidth=3;rounded=1;arcSize=0;edgeStyle=elbowEdgeStyle;startArrow=none;;endArrow=block;endFill=1;;entryX=0;entryY=0.49446425220493967;entryPerimeter=1;" parent="1" target="ZZtYwKiFHnZnZaZ_22vF-1" edge="1">
                        <mxGeometry width="100" height="100" relative="1" as="geometry">
                            <Array as="points"/>
                            <mxPoint x="5160" y="602" as="sourcePoint"/>
                        </mxGeometry>
                    </mxCell>
                </UserObject>
                <UserObject label="" lucidchartObjectId="vcGlAkrvUTIv" id="ZZtYwKiFHnZnZaZ_22vF-62">
                    <mxCell style="html=1;jettySize=18;fontSize=11;strokeColor=#0c7cba;strokeOpacity=100;strokeWidth=3;rounded=1;arcSize=0;edgeStyle=elbowEdgeStyle;startArrow=none;;endArrow=block;endFill=1;;" parent="1" edge="1">
                        <mxGeometry width="100" height="100" relative="1" as="geometry">
                            <Array as="points">
                                <mxPoint x="5100" y="474"/>
                            </Array>
                            <mxPoint x="5100" y="602" as="sourcePoint"/>
                            <mxPoint x="5220" y="474" as="targetPoint"/>
                        </mxGeometry>
                    </mxCell>
                </UserObject>
                <UserObject label="" lucidchartObjectId="HfGl~i8VzKFf" id="ZZtYwKiFHnZnZaZ_22vF-63">
                    <mxCell style="html=1;jettySize=18;fontSize=19;strokeColor=#0c7cba;strokeOpacity=100;strokeWidth=3;rounded=1;arcSize=0;edgeStyle=orthogonalEdgeStyle;startArrow=none;;endArrow=block;endFill=1;;exitX=0.4999999999999924;exitY=0;exitPerimeter=1;entryX=0.44151498092195046;entryY=1;entryPerimeter=1;" parent="1" source="ZZtYwKiFHnZnZaZ_22vF-1" target="ZZtYwKiFHnZnZaZ_22vF-64" edge="1">
                        <mxGeometry width="100" height="100" relative="1" as="geometry">
                            <Array as="points"/>
                        </mxGeometry>
                    </mxCell>
                </UserObject>
                <UserObject label="-2.5 a -3 Millones de Años" lucidchartObjectId="XfGlH0H0TEmV" id="ZZtYwKiFHnZnZaZ_22vF-64">
                    <mxCell style="html=1;whiteSpace=wrap;strokeColor=none;fontSize=19;fontColor=#000000;align=center;spacing=0;strokeOpacity=100;fillOpacity=100;fillColor=#ffffff;" parent="1" vertex="1" zOrder="34">
                        <mxGeometry x="5360" y="444" width="144" height="36" as="geometry"/>
                    </mxCell>
                </UserObject>
                <UserObject label="" lucidchartObjectId="JnGlWEk9J1wr" id="ZZtYwKiFHnZnZaZ_22vF-65">
                    <mxCell style="html=1;jettySize=18;fontSize=19;strokeColor=#0c7cba;strokeOpacity=100;strokeWidth=3;rounded=1;arcSize=0;edgeStyle=orthogonalEdgeStyle;startArrow=none;;endArrow=block;endFill=1;;exitX=0.44608119096766735;exitY=0;exitPerimeter=1;entryX=0.529;entryY=0.835;entryDx=0;entryDy=0;entryPerimeter=0;" parent="1" source="ZZtYwKiFHnZnZaZ_22vF-64" edge="1">
                        <mxGeometry width="100" height="100" relative="1" as="geometry">
                            <Array as="points"/>
                            <mxPoint x="5424.134237213252" y="421.2539989398949" as="targetPoint"/>
                        </mxGeometry>
                    </mxCell>
                </UserObject>
                <UserObject label="&lt;div style=&quot;font-size:19px;color:#000000;text-align: center;&quot;&gt;Último Antecesor Común Universal,&#10;&lt;/div&gt;&lt;div style=&quot;font-size:19px;color:#000000;text-align: center;&quot;&gt;primer ser vivo capaz de replicarse.&lt;/div&gt;" lucidchartObjectId="j7BlsgFfXJhD" id="ZZtYwKiFHnZnZaZ_22vF-20">
                    <mxCell style="html=1;whiteSpace=wrap;strokeColor=none;overflow=width;html=1;spacing=0;strokeOpacity=100;fillOpacity=100;fillColor=#ffffff;" parent="1" vertex="1" zOrder="0">
                        <mxGeometry x="2650" y="208" width="168" height="112" as="geometry"/>
                    </mxCell>
                </UserObject>
                <UserObject label="" lucidchartObjectId="SNHlOegvlr-H" id="ZZtYwKiFHnZnZaZ_22vF-77">
                    <mxCell style="html=1;jettySize=18;fontSize=11;strokeColor=#0c7cba;strokeOpacity=100;rounded=1;arcSize=0;edgeStyle=elbowEdgeStyle;startArrow=none;;endArrow=block;endFill=1;;strokeWidth=3;" parent="1" edge="1">
                        <mxGeometry width="100" height="100" relative="1" as="geometry">
                            <Array as="points"/>
                            <mxPoint x="2450" y="473" as="sourcePoint"/>
                            <mxPoint x="2450" y="421" as="targetPoint"/>
                        </mxGeometry>
                    </mxCell>
                </UserObject>
                <UserObject label="" lucidchartObjectId="SNHlOegvlr-H" id="ZZtYwKiFHnZnZaZ_22vF-78">
                    <mxCell style="html=1;jettySize=18;fontSize=11;strokeColor=#0c7cba;strokeOpacity=100;rounded=1;arcSize=0;edgeStyle=elbowEdgeStyle;startArrow=none;;endArrow=block;endFill=1;;strokeWidth=3;" parent="1" edge="1">
                        <mxGeometry width="100" height="100" relative="1" as="geometry">
                            <Array as="points"/>
                            <mxPoint x="3744" y="500" as="sourcePoint"/>
                            <mxPoint x="3743.63" y="418.5" as="targetPoint"/>
                        </mxGeometry>
                    </mxCell>
                </UserObject>
                <UserObject label="" lucidchartObjectId="SNHlOegvlr-H" id="ZZtYwKiFHnZnZaZ_22vF-79">
                    <mxCell style="html=1;jettySize=18;fontSize=11;strokeColor=#0c7cba;strokeOpacity=100;rounded=1;arcSize=0;edgeStyle=elbowEdgeStyle;startArrow=none;;endArrow=block;endFill=1;;strokeWidth=3;" parent="1" edge="1">
                        <mxGeometry width="100" height="100" relative="1" as="geometry">
                            <Array as="points"/>
                            <mxPoint x="3910" y="510" as="sourcePoint"/>
                            <mxPoint x="3910" y="420" as="targetPoint"/>
                        </mxGeometry>
                    </mxCell>
                </UserObject>
                <UserObject label="" lucidchartObjectId="SNHlOegvlr-H" id="ZZtYwKiFHnZnZaZ_22vF-80">
                    <mxCell style="html=1;jettySize=18;fontSize=11;strokeColor=#0c7cba;strokeOpacity=100;rounded=1;arcSize=0;edgeStyle=elbowEdgeStyle;startArrow=none;;endArrow=block;endFill=1;;strokeWidth=3;" parent="1" edge="1">
                        <mxGeometry width="100" height="100" relative="1" as="geometry">
                            <Array as="points"/>
                            <mxPoint x="3820" y="600" as="sourcePoint"/>
                            <mxPoint x="3820" y="430" as="targetPoint"/>
                        </mxGeometry>
                    </mxCell>
                </UserObject>
                <mxCell id="GIhmiWo3NBl80eyI7aRG-3" value="Text" style="edgeLabel;html=1;align=center;verticalAlign=middle;resizable=0;points=[];" parent="ZZtYwKiFHnZnZaZ_22vF-80" vertex="1" connectable="0">
                    <mxGeometry x="0.4824" y="8" relative="1" as="geometry">
                        <mxPoint as="offset"/>
                    </mxGeometry>
                </mxCell>
                <UserObject label="" lucidchartObjectId="SNHlOegvlr-H" id="ZZtYwKiFHnZnZaZ_22vF-81">
                    <mxCell style="html=1;jettySize=18;fontSize=11;strokeColor=#0c7cba;strokeOpacity=100;rounded=1;arcSize=0;edgeStyle=elbowEdgeStyle;startArrow=none;;endArrow=block;endFill=1;;strokeWidth=3;" parent="1" edge="1">
                        <mxGeometry width="100" height="100" relative="1" as="geometry">
                            <Array as="points"/>
                            <mxPoint x="4090" y="520" as="sourcePoint"/>
                            <mxPoint x="4090" y="420" as="targetPoint"/>
                        </mxGeometry>
                    </mxCell>
                </UserObject>
                <UserObject label="" lucidchartObjectId="SNHlOegvlr-H" id="ZZtYwKiFHnZnZaZ_22vF-85">
                    <mxCell style="html=1;jettySize=18;fontSize=11;strokeColor=#0c7cba;strokeOpacity=100;rounded=1;arcSize=0;edgeStyle=elbowEdgeStyle;startArrow=none;;endArrow=block;endFill=1;;strokeWidth=3;" parent="1" edge="1">
                        <mxGeometry width="100" height="100" relative="1" as="geometry">
                            <Array as="points"/>
                            <mxPoint x="4270" y="520" as="sourcePoint"/>
                            <mxPoint x="4270" y="420" as="targetPoint"/>
                        </mxGeometry>
                    </mxCell>
                </UserObject>
                <UserObject label="" lucidchartObjectId="SNHlOegvlr-H" id="ZZtYwKiFHnZnZaZ_22vF-86">
                    <mxCell style="html=1;jettySize=18;fontSize=11;strokeColor=#0c7cba;strokeOpacity=100;rounded=1;arcSize=0;edgeStyle=elbowEdgeStyle;startArrow=none;;endArrow=block;endFill=1;;strokeWidth=3;" parent="1" edge="1">
                        <mxGeometry width="100" height="100" relative="1" as="geometry">
                            <Array as="points"/>
                            <mxPoint x="4450" y="520" as="sourcePoint"/>
                            <mxPoint x="4450" y="420" as="targetPoint"/>
                        </mxGeometry>
                    </mxCell>
                </UserObject>
                <mxCell id="ZZtYwKiFHnZnZaZ_22vF-88" value="" style="shape=flexArrow;endArrow=classic;startArrow=classic;html=1;strokeWidth=1;width=25;fillColor=#FFDF71;startWidth=27.142857142857146;startSize=13.185714285714287;" parent="1" target="uObiRmeDUVNCLVn5ge0O-1" edge="1">
                    <mxGeometry width="50" height="50" relative="1" as="geometry">
                        <mxPoint x="456" y="430" as="sourcePoint"/>
                        <mxPoint x="21673.333333333332" y="430" as="targetPoint"/>
                    </mxGeometry>
                </mxCell>
                <mxCell id="ZZtYwKiFHnZnZaZ_22vF-89" value="" style="endArrow=classic;html=1;strokeWidth=3;fillColor=#1ba1e2;strokeColor=#006EAF;" parent="1" edge="1">
                    <mxGeometry width="50" height="50" relative="1" as="geometry">
                        <mxPoint x="2147" y="490" as="sourcePoint"/>
                        <mxPoint x="2147.29" y="422" as="targetPoint"/>
                    </mxGeometry>
                </mxCell>
                <mxCell id="ZZtYwKiFHnZnZaZ_22vF-90" value="" style="endArrow=classic;html=1;strokeWidth=4;fillColor=#1ba1e2;strokeColor=#006EAF;" parent="1" edge="1">
                    <mxGeometry width="50" height="50" relative="1" as="geometry">
                        <mxPoint x="1930" y="500" as="sourcePoint"/>
                        <mxPoint x="1930" y="422" as="targetPoint"/>
                    </mxGeometry>
                </mxCell>
                <mxCell id="ZZtYwKiFHnZnZaZ_22vF-91" value="" style="endArrow=classic;html=1;strokeWidth=4;fillColor=#1ba1e2;strokeColor=#006EAF;" parent="1" edge="1">
                    <mxGeometry width="50" height="50" relative="1" as="geometry">
                        <mxPoint x="1048.5" y="326" as="sourcePoint"/>
                        <mxPoint x="1048.79" y="416" as="targetPoint"/>
                    </mxGeometry>
                </mxCell>
                <mxCell id="ZZtYwKiFHnZnZaZ_22vF-93" value="" style="shape=curlyBracket;whiteSpace=wrap;html=1;rounded=1;strokeColor=#0C7CBA;fillColor=none;rotation=90;" parent="1" vertex="1">
                    <mxGeometry x="915.5" y="102" width="20" height="580" as="geometry"/>
                </mxCell>
                <mxCell id="ZZtYwKiFHnZnZaZ_22vF-95" value="" style="endArrow=classic;html=1;strokeWidth=4;fillColor=#1ba1e2;strokeColor=#006EAF;" parent="1" edge="1">
                    <mxGeometry width="50" height="50" relative="1" as="geometry">
                        <mxPoint x="805.5" y="352" as="sourcePoint"/>
                        <mxPoint x="805.5" y="422" as="targetPoint"/>
                    </mxGeometry>
                </mxCell>
                <mxCell id="ZZtYwKiFHnZnZaZ_22vF-96" value="" style="endArrow=classic;html=1;strokeWidth=4;fillColor=#1ba1e2;strokeColor=#006EAF;" parent="1" target="ZZtYwKiFHnZnZaZ_22vF-14" edge="1">
                    <mxGeometry width="50" height="50" relative="1" as="geometry">
                        <mxPoint x="3990" y="549" as="sourcePoint"/>
                        <mxPoint x="4490" y="545.17" as="targetPoint"/>
                    </mxGeometry>
                </mxCell>
                <UserObject label="&lt;div style=&quot;font-size:19px;color:#000000;text-align: center;&quot;&gt;Hominoideos&#10;&lt;/div&gt;&lt;div style=&quot;font-size:19px;color:#000000;text-align: center;&quot;&gt;o grandes simios&lt;/div&gt;" lucidchartObjectId="gzElXMOR2awU" id="ZZtYwKiFHnZnZaZ_22vF-15">
                    <mxCell style="html=1;whiteSpace=wrap;strokeColor=none;overflow=width;html=1;spacing=0;strokeOpacity=100;fillOpacity=100;fillColor=#ffffff;" parent="1" vertex="1" zOrder="0">
                        <mxGeometry x="4200" y="520" width="144" height="52" as="geometry"/>
                    </mxCell>
                </UserObject>
                <UserObject label="&lt;div style=&quot;font-size:19px;color:#000000;text-align: center;&quot;&gt;Hominidos&#10;&lt;/div&gt;&lt;div style=&quot;font-size:19px;color:#000000;text-align: center;&quot;&gt;Hominidae&lt;/div&gt;" lucidchartObjectId="szElAiaI-WXC" id="ZZtYwKiFHnZnZaZ_22vF-18">
                    <mxCell style="html=1;whiteSpace=wrap;strokeColor=none;overflow=width;html=1;spacing=0;strokeOpacity=100;fillOpacity=100;fillColor=#ffffff;" parent="1" vertex="1" zOrder="0">
                        <mxGeometry x="4380" y="522" width="144" height="42" as="geometry"/>
                    </mxCell>
                </UserObject>
                <mxCell id="ZZtYwKiFHnZnZaZ_22vF-97" value="" style="endArrow=classic;html=1;strokeWidth=4;fillColor=#1ba1e2;strokeColor=#006EAF;fontSize=19;" parent="1" edge="1">
                    <mxGeometry width="50" height="50" relative="1" as="geometry">
                        <mxPoint x="5456" y="680" as="sourcePoint"/>
                        <mxPoint x="5506" y="680" as="targetPoint"/>
                    </mxGeometry>
                </mxCell>
                <UserObject label="Orden Primate" lucidchartObjectId="aJEl_uw3.xt5" id="ZZtYwKiFHnZnZaZ_22vF-2">
                    <mxCell style="html=1;whiteSpace=wrap;strokeColor=none;fontSize=19;fontColor=#000000;align=center;spacing=0;strokeOpacity=100;fillOpacity=100;fillColor=#ffffff;" parent="1" vertex="1" zOrder="0">
                        <mxGeometry x="4020" y="528" width="144" height="36" as="geometry"/>
                    </mxCell>
                </UserObject>
                <mxCell id="ZZtYwKiFHnZnZaZ_22vF-98" value="" style="endArrow=classic;html=1;strokeWidth=4;fillColor=#1ba1e2;strokeColor=#006EAF;fontSize=19;" parent="1" edge="1">
                    <mxGeometry width="50" height="50" relative="1" as="geometry">
                        <mxPoint x="5650" y="680" as="sourcePoint"/>
                        <mxPoint x="5690" y="680" as="targetPoint"/>
                    </mxGeometry>
                </mxCell>
                <mxCell id="ZZtYwKiFHnZnZaZ_22vF-105" value="Homo Sapiens" style="text;html=1;strokeColor=none;fillColor=none;align=center;verticalAlign=middle;whiteSpace=wrap;rounded=0;fontSize=19;" parent="1" vertex="1">
                    <mxGeometry x="5720" y="665" width="40" height="20" as="geometry"/>
                </mxCell>
                <mxCell id="ZZtYwKiFHnZnZaZ_22vF-106" value="" style="endArrow=classic;html=1;strokeWidth=4;fillColor=#1ba1e2;strokeColor=#006EAF;fontSize=19;" parent="1" edge="1">
                    <mxGeometry width="50" height="50" relative="1" as="geometry">
                        <mxPoint x="5780" y="680" as="sourcePoint"/>
                        <mxPoint x="5820" y="680" as="targetPoint"/>
                    </mxGeometry>
                </mxCell>
                <mxCell id="ZZtYwKiFHnZnZaZ_22vF-107" value="Homo Sapiens &lt;br&gt;Sapiens" style="text;html=1;align=center;verticalAlign=middle;resizable=0;points=[];autosize=1;fontSize=19;" parent="1" vertex="1">
                    <mxGeometry x="5820" y="650" width="140" height="50" as="geometry"/>
                </mxCell>
                <mxCell id="1F-ASK21ptA6jdUsLRjf-2" value="&lt;font style=&quot;font-size: 48px&quot;&gt;Historia Mundial&lt;/font&gt;" style="text;html=1;align=center;verticalAlign=middle;resizable=0;points=[];autosize=1;" parent="1" vertex="1">
                    <mxGeometry x="70.13" y="50" width="360" height="30" as="geometry"/>
                </mxCell>
                <mxCell id="1F-ASK21ptA6jdUsLRjf-3" value="&lt;font style=&quot;font-size: 12px&quot;&gt;https://www.wdl.org/es/sets/world-history/timeline/&lt;br&gt;&lt;/font&gt;" style="text;html=1;align=center;verticalAlign=middle;resizable=0;points=[];autosize=1;" parent="1" vertex="1">
                    <mxGeometry x="80" y="100" width="280" height="20" as="geometry"/>
                </mxCell>
                <mxCell id="Vwznp_ijAJkG_W2RLIn6-2" value="" style="endArrow=classic;html=1;strokeWidth=4;fillColor=#1ba1e2;strokeColor=#006EAF;" parent="1" edge="1">
                    <mxGeometry width="50" height="50" relative="1" as="geometry">
                        <mxPoint x="11410" y="440.75" as="sourcePoint"/>
                        <mxPoint x="11410.29" y="530.75" as="targetPoint"/>
                        <Array as="points"/>
                    </mxGeometry>
                </mxCell>
                <mxCell id="Vwznp_ijAJkG_W2RLIn6-4" value="" style="endArrow=classic;html=1;strokeWidth=4;fillColor=#1ba1e2;strokeColor=#006EAF;" parent="1" edge="1">
                    <mxGeometry width="50" height="50" relative="1" as="geometry">
                        <mxPoint x="12239.66" y="443.75" as="sourcePoint"/>
                        <mxPoint x="12239.95" y="533.75" as="targetPoint"/>
                    </mxGeometry>
                </mxCell>
                <mxCell id="Vwznp_ijAJkG_W2RLIn6-5" value="" style="endArrow=classic;html=1;strokeWidth=4;fillColor=#1ba1e2;strokeColor=#006EAF;" parent="1" edge="1">
                    <mxGeometry width="50" height="50" relative="1" as="geometry">
                        <mxPoint x="13730" y="449.25" as="sourcePoint"/>
                        <mxPoint x="13730.29" y="539.25" as="targetPoint"/>
                    </mxGeometry>
                </mxCell>
                <mxCell id="Vwznp_ijAJkG_W2RLIn6-9" value="&lt;font&gt;&lt;br&gt;&lt;/font&gt;" style="text;html=1;align=center;verticalAlign=middle;resizable=0;points=[];autosize=1;" parent="1" vertex="1">
                    <mxGeometry x="11405" y="592.75" width="20" height="20" as="geometry"/>
                </mxCell>
                <mxCell id="Vwznp_ijAJkG_W2RLIn6-10" value="&lt;font&gt;&lt;br&gt;&lt;/font&gt;" style="text;html=1;align=center;verticalAlign=middle;resizable=0;points=[];autosize=1;" parent="1" vertex="1">
                    <mxGeometry x="12240" y="553.75" width="20" height="20" as="geometry"/>
                </mxCell>
                <mxCell id="Vwznp_ijAJkG_W2RLIn6-11" value="&lt;font style=&quot;font-size: 18px&quot;&gt;Revolución&lt;br&gt;Francesa&lt;br&gt;Año 1789&lt;/font&gt;" style="text;html=1;align=center;verticalAlign=middle;resizable=0;points=[];autosize=1;" parent="1" vertex="1">
                    <mxGeometry x="13675" y="556.25" width="100" height="50" as="geometry"/>
                </mxCell>
                <mxCell id="Vwznp_ijAJkG_W2RLIn6-14" value="&lt;br&gt;&lt;table class=&quot;infobox&quot; style=&quot;font-size: 12.6px ; border: 1px solid rgb(180 , 187 , 200) ; background-color: rgb(249 , 249 , 249) ; margin: 0.5em 0px 0.7em 1.2em ; padding: 0.23em ; clear: right ; line-height: 1.4em ; width: 22.7em ; font-family: sans-serif ; text-align: left&quot;&gt;&lt;tbody&gt;&lt;tr&gt;&lt;td colspan=&quot;2&quot; style=&quot;vertical-align: top&quot;&gt;&lt;font style=&quot;font-size: 9px&quot;&gt;&lt;a href=&quot;https://es.wikipedia.org/wiki/5_de_mayo&quot; title=&quot;1799&quot; style=&quot;color: rgb(6 , 69 , 173) ; background: none&quot;&gt;5 de mayo&lt;/a&gt;&amp;nbsp;de&amp;nbsp;&lt;a href=&quot;https://es.wikipedia.org/wiki/1789&quot; title=&quot;1789&quot; style=&quot;color: rgb(6 , 69 , 173) ; background: none&quot;&gt;1789&lt;/a&gt;-&lt;a href=&quot;https://es.wikipedia.org/wiki/9_de_noviembre&quot; title=&quot;&quot; style=&quot;color: rgb(6 , 69 , 173) ; background: none&quot;&gt;9 de noviembre&lt;/a&gt;&amp;nbsp;de&amp;nbsp;&lt;a href=&quot;https://es.wikipedia.org/wiki/1799&quot; title=&quot;&quot; style=&quot;color: rgb(6 , 69 , 173) ; background: none&quot;&gt;1799&lt;/a&gt;&lt;/font&gt;&lt;/td&gt;&lt;/tr&gt;&lt;/tbody&gt;&lt;/table&gt;" style="text;html=1;align=center;verticalAlign=middle;resizable=0;points=[];autosize=1;fontSize=19;" parent="1" vertex="1">
                    <mxGeometry x="13590" y="612.75" width="320" height="70" as="geometry"/>
                </mxCell>
                <mxCell id="07eDbId-QKpFqA82F0TW-5" value="&lt;font style=&quot;font-size: 24px&quot;&gt;3500 c.A.&lt;br&gt;inicio de Mesopotamia (su nombre en el griego antiguo significa entre dos rios ya que se encontraba entre el rio&lt;span style=&quot;color: rgb(32 , 33 , 36) ; font-family: &amp;#34;arial&amp;#34; , sans-serif ; text-align: left ; background-color: rgb(255 , 255 , 255)&quot;&gt;&amp;nbsp;&lt;font&gt;Tigris y el Éufrates)&lt;/font&gt;&lt;/span&gt;&lt;/font&gt;&lt;br&gt;3500a.C.-2100a.C&amp;nbsp;" style="text;html=1;strokeColor=none;fillColor=none;align=center;verticalAlign=middle;whiteSpace=wrap;rounded=0;" parent="1" vertex="1">
                    <mxGeometry x="6420" y="516" width="220" height="285" as="geometry"/>
                </mxCell>
                <mxCell id="07eDbId-QKpFqA82F0TW-8" value="3200 a.C.&lt;br&gt;inicio del egipto antiguo" style="text;html=1;strokeColor=none;fillColor=none;align=center;verticalAlign=middle;whiteSpace=wrap;rounded=0;" parent="1" vertex="1">
                    <mxGeometry x="6730" y="525" width="90" height="104" as="geometry"/>
                </mxCell>
                <mxCell id="07eDbId-QKpFqA82F0TW-10" value="año 0&amp;nbsp;&lt;br&gt;nacimiento de Cristo" style="text;html=1;strokeColor=none;fillColor=none;align=center;verticalAlign=middle;whiteSpace=wrap;rounded=0;" parent="1" vertex="1">
                    <mxGeometry x="8110" y="488" width="60" height="57" as="geometry"/>
                </mxCell>
                <mxCell id="07eDbId-QKpFqA82F0TW-12" value="29 a.C.&lt;br&gt;inicio del imperio romano de oriente" style="text;html=1;strokeColor=none;fillColor=none;align=center;verticalAlign=middle;whiteSpace=wrap;rounded=0;" parent="1" vertex="1">
                    <mxGeometry x="7950" y="498.5" width="80" height="36" as="geometry"/>
                </mxCell>
                <mxCell id="07eDbId-QKpFqA82F0TW-18" value="776 a.C.&lt;br&gt;inicio de la grecia antigua" style="text;html=1;strokeColor=none;fillColor=none;align=center;verticalAlign=middle;whiteSpace=wrap;rounded=0;" parent="1" vertex="1">
                    <mxGeometry x="7360" y="495" width="70" height="70" as="geometry"/>
                </mxCell>
                <mxCell id="07eDbId-QKpFqA82F0TW-20" value="3200 a.C.-31 a.C." style="text;html=1;strokeColor=none;fillColor=none;align=center;verticalAlign=middle;whiteSpace=wrap;rounded=0;" parent="1" vertex="1">
                    <mxGeometry x="6730" y="609.75" width="90" height="20" as="geometry"/>
                </mxCell>
                <mxCell id="07eDbId-QKpFqA82F0TW-23" value="28 a.C. -476 d.C." style="text;html=1;strokeColor=none;fillColor=none;align=center;verticalAlign=middle;whiteSpace=wrap;rounded=0;" parent="1" vertex="1">
                    <mxGeometry x="7960" y="555" width="60" height="20" as="geometry"/>
                </mxCell>
                <mxCell id="iwjtMgMJg4jL5t8D872z-2" value="año 395&amp;nbsp;&lt;br&gt;inicio del imperio romano de occidente&lt;br&gt;395-476&amp;nbsp;" style="text;html=1;strokeColor=none;fillColor=none;align=center;verticalAlign=middle;whiteSpace=wrap;rounded=0;" parent="1" vertex="1">
                    <mxGeometry x="8660" y="485" width="80" height="140" as="geometry"/>
                </mxCell>
                <mxCell id="iwjtMgMJg4jL5t8D872z-3" value="" style="endArrow=classic;html=1;strokeColor=#0C7CBA;strokeWidth=3;" parent="1" edge="1">
                    <mxGeometry width="50" height="50" relative="1" as="geometry">
                        <mxPoint x="6720" y="445" as="sourcePoint"/>
                        <mxPoint x="6720" y="485" as="targetPoint"/>
                        <Array as="points">
                            <mxPoint x="6719.5" y="473"/>
                        </Array>
                    </mxGeometry>
                </mxCell>
                <mxCell id="iwjtMgMJg4jL5t8D872z-4" value="primera escritura cuneiforme&lt;br&gt;3400 a.C." style="text;html=1;strokeColor=none;fillColor=none;align=center;verticalAlign=middle;whiteSpace=wrap;rounded=0;" parent="1" vertex="1">
                    <mxGeometry x="6700" y="504" width="40" height="20" as="geometry"/>
                </mxCell>
                <mxCell id="7u9EDJmj-7bqoUUzfo6h-1" value="400a.C.&lt;br&gt;invencion de la imprenta" style="text;html=1;strokeColor=none;fillColor=none;align=center;verticalAlign=middle;whiteSpace=wrap;rounded=0;" parent="1" vertex="1">
                    <mxGeometry x="7539" y="488" width="60" height="84.5" as="geometry"/>
                </mxCell>
                <mxCell id="7u9EDJmj-7bqoUUzfo6h-6" value="5 a.C.&lt;br&gt;se crea las 12 tablas" style="text;html=1;strokeColor=none;fillColor=none;align=center;verticalAlign=middle;whiteSpace=wrap;rounded=0;" parent="1" vertex="1">
                    <mxGeometry x="8070" y="488" width="30" height="63" as="geometry"/>
                </mxCell>
                <mxCell id="7u9EDJmj-7bqoUUzfo6h-9" value="año 1492&lt;br&gt;llegada de Colon a America" style="text;html=1;strokeColor=none;fillColor=none;align=center;verticalAlign=middle;whiteSpace=wrap;rounded=0;" parent="1" vertex="1">
                    <mxGeometry x="13160" y="494.75" width="60" height="105" as="geometry"/>
                </mxCell>
                <mxCell id="7u9EDJmj-7bqoUUzfo6h-11" value="año1766&lt;br&gt;invenncion de la maquina de vapor" style="text;html=1;strokeColor=none;fillColor=none;align=center;verticalAlign=middle;whiteSpace=wrap;rounded=0;" parent="1" vertex="1">
                    <mxGeometry x="13490" y="534.75" width="60" height="58" as="geometry"/>
                </mxCell>
                <mxCell id="7u9EDJmj-7bqoUUzfo6h-12" value="" style="endArrow=classic;html=1;" parent="1" edge="1">
                    <mxGeometry width="50" height="50" relative="1" as="geometry">
                        <mxPoint x="15070" y="373.75" as="sourcePoint"/>
                        <mxPoint x="15070" y="413.75" as="targetPoint"/>
                    </mxGeometry>
                </mxCell>
                <mxCell id="7u9EDJmj-7bqoUUzfo6h-13" value="año1804&lt;br&gt;invencion del tren" style="text;html=1;strokeColor=none;fillColor=none;align=center;verticalAlign=middle;whiteSpace=wrap;rounded=0;" parent="1" vertex="1">
                    <mxGeometry x="15040" y="513.75" width="60" height="66" as="geometry"/>
                </mxCell>
                <mxCell id="7u9EDJmj-7bqoUUzfo6h-15" value="año 1545&lt;br&gt;concilio de trento" style="text;html=1;strokeColor=none;fillColor=none;align=center;verticalAlign=middle;whiteSpace=wrap;rounded=0;" parent="1" vertex="1">
                    <mxGeometry x="13310" y="512.75" width="70" height="63" as="geometry"/>
                </mxCell>
                <mxCell id="7u9EDJmj-7bqoUUzfo6h-18" value="año 1545-1563" style="text;html=1;strokeColor=none;fillColor=none;align=center;verticalAlign=middle;whiteSpace=wrap;rounded=0;" parent="1" vertex="1">
                    <mxGeometry x="13310" y="573.75" width="70" height="24" as="geometry"/>
                </mxCell>
                <mxCell id="7u9EDJmj-7bqoUUzfo6h-19" value="" style="endArrow=classic;html=1;strokeColor=#0C7CBA;strokeWidth=3;" parent="1" edge="1">
                    <mxGeometry width="50" height="50" relative="1" as="geometry">
                        <mxPoint x="9910" y="435" as="sourcePoint"/>
                        <mxPoint x="9910" y="458.9999999999999" as="targetPoint"/>
                    </mxGeometry>
                </mxCell>
                <mxCell id="7u9EDJmj-7bqoUUzfo6h-21" value="año 1122&lt;br&gt;tratado de worms&amp;nbsp;" style="text;html=1;strokeColor=none;fillColor=none;align=center;verticalAlign=middle;whiteSpace=wrap;rounded=0;" parent="1" vertex="1">
                    <mxGeometry x="9870" y="458" width="80" height="76" as="geometry"/>
                </mxCell>
                <mxCell id="7u9EDJmj-7bqoUUzfo6h-23" value="año 1766&lt;br&gt;independencia de las 13 colonias" style="text;html=1;strokeColor=none;fillColor=none;align=center;verticalAlign=middle;whiteSpace=wrap;rounded=0;" parent="1" vertex="1">
                    <mxGeometry x="13500" y="683.75" width="40" height="63" as="geometry"/>
                </mxCell>
                <mxCell id="7u9EDJmj-7bqoUUzfo6h-26" value="era anpoleonica&amp;nbsp; año 1789-1799" style="text;html=1;strokeColor=none;fillColor=none;align=center;verticalAlign=middle;whiteSpace=wrap;rounded=0;" parent="1" vertex="1">
                    <mxGeometry x="14510" y="493.75" width="50" height="94" as="geometry"/>
                </mxCell>
                <mxCell id="7u9EDJmj-7bqoUUzfo6h-28" value="1346-1352&lt;br&gt;peste negra" style="text;html=1;strokeColor=none;fillColor=none;align=center;verticalAlign=middle;whiteSpace=wrap;rounded=0;" parent="1" vertex="1">
                    <mxGeometry x="10760" y="478" width="50" height="70" as="geometry"/>
                </mxCell>
                <mxCell id="7u9EDJmj-7bqoUUzfo6h-30" value="1918 -1920&lt;br&gt;fiebre española" style="text;html=1;strokeColor=none;fillColor=none;align=center;verticalAlign=middle;whiteSpace=wrap;rounded=0;" parent="1" vertex="1">
                    <mxGeometry x="16903" y="516.25" width="40" height="40" as="geometry"/>
                </mxCell>
                <mxCell id="7u9EDJmj-7bqoUUzfo6h-32" value="1914-1918&lt;br&gt;primera guerra&amp;nbsp; mundial" style="text;html=1;strokeColor=none;fillColor=none;align=center;verticalAlign=middle;whiteSpace=wrap;rounded=0;" parent="1" vertex="1">
                    <mxGeometry x="16783" y="531.75" width="40" height="20" as="geometry"/>
                </mxCell>
                <mxCell id="7u9EDJmj-7bqoUUzfo6h-34" value="1939-1945&lt;br&gt;Segunda guerra mundial" style="text;html=1;strokeColor=none;fillColor=none;align=center;verticalAlign=middle;whiteSpace=wrap;rounded=0;" parent="1" vertex="1">
                    <mxGeometry x="17123" y="501.75" width="90" height="80" as="geometry"/>
                </mxCell>
                <mxCell id="7u9EDJmj-7bqoUUzfo6h-36" value="primer tratado de versalles&amp;nbsp;&lt;br&gt;1918" style="text;html=1;strokeColor=none;fillColor=none;align=center;verticalAlign=middle;whiteSpace=wrap;rounded=0;" parent="1" vertex="1">
                    <mxGeometry x="16843" y="629.75" width="50" height="70" as="geometry"/>
                </mxCell>
                <mxCell id="7u9EDJmj-7bqoUUzfo6h-38" value="segundo tratado de versalles 1919&amp;nbsp;" style="text;html=1;strokeColor=none;fillColor=none;align=center;verticalAlign=middle;whiteSpace=wrap;rounded=0;" parent="1" vertex="1">
                    <mxGeometry x="17003" y="564.75" width="60" height="90" as="geometry"/>
                </mxCell>
                <mxCell id="7u9EDJmj-7bqoUUzfo6h-40" value="1929&lt;br&gt;caida de bolsa de valores de wal street" style="text;html=1;strokeColor=none;fillColor=none;align=center;verticalAlign=middle;whiteSpace=wrap;rounded=0;" parent="1" vertex="1">
                    <mxGeometry x="17043" y="506.25" width="70" height="60" as="geometry"/>
                </mxCell>
                <mxCell id="7u9EDJmj-7bqoUUzfo6h-42" value="&lt;font style=&quot;font-size: 24px&quot;&gt;caida de muro de berlin en 1989&lt;/font&gt;" style="text;html=1;strokeColor=none;fillColor=none;align=center;verticalAlign=middle;whiteSpace=wrap;rounded=0;" parent="1" vertex="1">
                    <mxGeometry x="18940" y="518.12" width="120" height="134.25" as="geometry"/>
                </mxCell>
                <mxCell id="7u9EDJmj-7bqoUUzfo6h-43" value="" style="endArrow=classic;html=1;fillColor=#dae8fc;strokeColor=#6c8ebf;" parent="1" target="7u9EDJmj-7bqoUUzfo6h-44" edge="1">
                    <mxGeometry width="50" height="50" relative="1" as="geometry">
                        <mxPoint x="17877" y="453.75" as="sourcePoint"/>
                        <mxPoint x="17873" y="433.75" as="targetPoint"/>
                    </mxGeometry>
                </mxCell>
                <mxCell id="7u9EDJmj-7bqoUUzfo6h-44" value="primer hombre&amp;nbsp; en la luna&lt;br&gt;1969" style="text;html=1;strokeColor=none;fillColor=none;align=center;verticalAlign=middle;whiteSpace=wrap;rounded=0;" parent="1" vertex="1">
                    <mxGeometry x="17843" y="562.75" width="70" height="60" as="geometry"/>
                </mxCell>
                <mxCell id="7u9EDJmj-7bqoUUzfo6h-45" value="" style="endArrow=classic;html=1;fillColor=#dae8fc;strokeColor=#6c8ebf;" parent="1" target="7u9EDJmj-7bqoUUzfo6h-46" edge="1">
                    <mxGeometry width="50" height="50" relative="1" as="geometry">
                        <mxPoint x="17823" y="453.75" as="sourcePoint"/>
                        <mxPoint x="17783" y="433.75" as="targetPoint"/>
                    </mxGeometry>
                </mxCell>
                <mxCell id="7u9EDJmj-7bqoUUzfo6h-46" value="primer hombre en el espacio&lt;br&gt;1961" style="text;html=1;strokeColor=none;fillColor=none;align=center;verticalAlign=middle;whiteSpace=wrap;rounded=0;" parent="1" vertex="1">
                    <mxGeometry x="17733" y="531.75" width="60" height="50" as="geometry"/>
                </mxCell>
                <mxCell id="Z-mKZSxy7FhXRGkzO5_A-24" style="edgeStyle=orthogonalEdgeStyle;rounded=0;orthogonalLoop=1;jettySize=auto;html=1;exitX=0.5;exitY=0;exitDx=0;exitDy=0;strokeColor=#0C7CBA;strokeWidth=3;" parent="1" source="7u9EDJmj-7bqoUUzfo6h-47" edge="1">
                    <mxGeometry relative="1" as="geometry">
                        <mxPoint x="17323" y="443.75" as="targetPoint"/>
                    </mxGeometry>
                </mxCell>
                <mxCell id="7u9EDJmj-7bqoUUzfo6h-47" value="1945&lt;br&gt;bomba nuclear en hiroshim y negsaki" style="text;html=1;strokeColor=none;fillColor=none;align=center;verticalAlign=middle;whiteSpace=wrap;rounded=0;" parent="1" vertex="1">
                    <mxGeometry x="17293" y="554.75" width="60" height="50" as="geometry"/>
                </mxCell>
                <mxCell id="7u9EDJmj-7bqoUUzfo6h-50" value="disolucion de la U.R.S.S.&lt;br&gt;1922-1991" style="text;html=1;strokeColor=none;fillColor=none;align=center;verticalAlign=middle;whiteSpace=wrap;rounded=0;" parent="1" vertex="1">
                    <mxGeometry x="16933" y="660.25" width="80" height="110" as="geometry"/>
                </mxCell>
                <mxCell id="7u9EDJmj-7bqoUUzfo6h-51" value="" style="endArrow=classic;html=1;fillColor=#dae8fc;strokeColor=#6c8ebf;" parent="1" target="7u9EDJmj-7bqoUUzfo6h-52" edge="1">
                    <mxGeometry width="50" height="50" relative="1" as="geometry">
                        <mxPoint x="20310" y="420.75" as="sourcePoint"/>
                        <mxPoint x="20310" y="390.75" as="targetPoint"/>
                    </mxGeometry>
                </mxCell>
                <mxCell id="7u9EDJmj-7bqoUUzfo6h-52" value="inicio del coronavirus&amp;nbsp;&lt;br&gt;Noviembre 2019-actalidad(2021)" style="text;html=1;strokeColor=none;fillColor=none;align=center;verticalAlign=middle;whiteSpace=wrap;rounded=0;" parent="1" vertex="1">
                    <mxGeometry x="20250" y="505.75" width="120" height="80" as="geometry"/>
                </mxCell>
                <mxCell id="7u9EDJmj-7bqoUUzfo6h-54" value="" style="endArrow=classic;html=1;strokeColor=#0C7CBA;strokeWidth=3;" parent="1" edge="1">
                    <mxGeometry width="50" height="50" relative="1" as="geometry">
                        <mxPoint x="9830" y="435" as="sourcePoint"/>
                        <mxPoint x="9830" y="475" as="targetPoint"/>
                    </mxGeometry>
                </mxCell>
                <mxCell id="7u9EDJmj-7bqoUUzfo6h-55" value="1095-1291&lt;br&gt;cruzadas" style="text;html=1;strokeColor=none;fillColor=none;align=center;verticalAlign=middle;whiteSpace=wrap;rounded=0;" parent="1" vertex="1">
                    <mxGeometry x="9800" y="475" width="60" height="70" as="geometry"/>
                </mxCell>
                <mxCell id="7u9EDJmj-7bqoUUzfo6h-57" value="invasion de los Huno&lt;br&gt;370" style="text;html=1;strokeColor=none;fillColor=none;align=center;verticalAlign=middle;whiteSpace=wrap;rounded=0;" parent="1" vertex="1">
                    <mxGeometry x="8550" y="485" width="90" height="60" as="geometry"/>
                </mxCell>
                <mxCell id="7u9EDJmj-7bqoUUzfo6h-59" value="1337-1453&lt;br&gt;guerra de los 100 años" style="text;html=1;strokeColor=none;fillColor=none;align=center;verticalAlign=middle;whiteSpace=wrap;rounded=0;" parent="1" vertex="1">
                    <mxGeometry x="10640" y="480" width="80" height="50" as="geometry"/>
                </mxCell>
                <mxCell id="GIhmiWo3NBl80eyI7aRG-5" value="" style="endArrow=classic;html=1;strokeColor=#0C7CBA;strokeWidth=3;" parent="1" edge="1">
                    <mxGeometry width="50" height="50" relative="1" as="geometry">
                        <mxPoint x="6529.66" y="438.5" as="sourcePoint"/>
                        <mxPoint x="6529.66" y="518.5" as="targetPoint"/>
                    </mxGeometry>
                </mxCell>
                <mxCell id="GIhmiWo3NBl80eyI7aRG-6" value="" style="endArrow=classic;html=1;strokeColor=#0C7CBA;strokeWidth=3;" parent="1" target="07eDbId-QKpFqA82F0TW-8" edge="1">
                    <mxGeometry width="50" height="50" relative="1" as="geometry">
                        <mxPoint x="6775" y="445" as="sourcePoint"/>
                        <mxPoint x="6800" y="555" as="targetPoint"/>
                    </mxGeometry>
                </mxCell>
                <mxCell id="GIhmiWo3NBl80eyI7aRG-7" value="" style="endArrow=classic;html=1;strokeColor=#0C7CBA;strokeWidth=3;entryX=0.473;entryY=-0.055;entryDx=0;entryDy=0;entryPerimeter=0;" parent="1" target="07eDbId-QKpFqA82F0TW-18" edge="1">
                    <mxGeometry width="50" height="50" relative="1" as="geometry">
                        <mxPoint x="7393" y="440" as="sourcePoint"/>
                        <mxPoint x="7540" y="480" as="targetPoint"/>
                    </mxGeometry>
                </mxCell>
                <mxCell id="GIhmiWo3NBl80eyI7aRG-9" value="" style="endArrow=classic;html=1;strokeColor=#0C7CBA;strokeWidth=3;" parent="1" target="7u9EDJmj-7bqoUUzfo6h-1" edge="1">
                    <mxGeometry width="50" height="50" relative="1" as="geometry">
                        <mxPoint x="7570" y="440" as="sourcePoint"/>
                        <mxPoint x="7540" y="480" as="targetPoint"/>
                    </mxGeometry>
                </mxCell>
                <mxCell id="XSqqIyHMBxxHEsDzGzov-1" value="" style="endArrow=classic;html=1;strokeColor=#0C7CBA;strokeWidth=3;" parent="1" edge="1">
                    <mxGeometry width="50" height="50" relative="1" as="geometry">
                        <mxPoint x="7990" y="440" as="sourcePoint"/>
                        <mxPoint x="7990" y="480" as="targetPoint"/>
                    </mxGeometry>
                </mxCell>
                <mxCell id="XSqqIyHMBxxHEsDzGzov-3" value="" style="endArrow=classic;html=1;strokeColor=#0C7CBA;strokeWidth=3;entryX=0.5;entryY=0;entryDx=0;entryDy=0;" parent="1" target="7u9EDJmj-7bqoUUzfo6h-6" edge="1">
                    <mxGeometry width="50" height="50" relative="1" as="geometry">
                        <mxPoint x="8085" y="440" as="sourcePoint"/>
                        <mxPoint x="8080" y="480" as="targetPoint"/>
                    </mxGeometry>
                </mxCell>
                <mxCell id="XSqqIyHMBxxHEsDzGzov-4" value="" style="endArrow=classic;html=1;strokeColor=#0C7CBA;strokeWidth=3;" parent="1" target="07eDbId-QKpFqA82F0TW-10" edge="1">
                    <mxGeometry width="50" height="50" relative="1" as="geometry">
                        <mxPoint x="8140" y="440" as="sourcePoint"/>
                        <mxPoint x="8190" y="480" as="targetPoint"/>
                    </mxGeometry>
                </mxCell>
                <mxCell id="XSqqIyHMBxxHEsDzGzov-5" value="" style="endArrow=classic;html=1;strokeColor=#0C7CBA;strokeWidth=3;" parent="1" edge="1">
                    <mxGeometry width="50" height="50" relative="1" as="geometry">
                        <mxPoint x="8590" y="440" as="sourcePoint"/>
                        <mxPoint x="8590" y="486" as="targetPoint"/>
                    </mxGeometry>
                </mxCell>
                <mxCell id="XSqqIyHMBxxHEsDzGzov-6" value="" style="endArrow=classic;html=1;strokeColor=#0C7CBA;strokeWidth=3;" parent="1" target="iwjtMgMJg4jL5t8D872z-2" edge="1">
                    <mxGeometry width="50" height="50" relative="1" as="geometry">
                        <mxPoint x="8700" y="440" as="sourcePoint"/>
                        <mxPoint x="8640" y="563.5" as="targetPoint"/>
                    </mxGeometry>
                </mxCell>
                <mxCell id="Z-mKZSxy7FhXRGkzO5_A-1" value="" style="endArrow=classic;html=1;strokeColor=#0C7CBA;strokeWidth=3;entryX=0.5;entryY=0;entryDx=0;entryDy=0;" parent="1" target="7u9EDJmj-7bqoUUzfo6h-28" edge="1">
                    <mxGeometry width="50" height="50" relative="1" as="geometry">
                        <mxPoint x="10785" y="440" as="sourcePoint"/>
                        <mxPoint x="10680" y="480" as="targetPoint"/>
                    </mxGeometry>
                </mxCell>
                <mxCell id="Z-mKZSxy7FhXRGkzO5_A-2" value="" style="endArrow=classic;html=1;strokeColor=#0C7CBA;strokeWidth=3;" parent="1" edge="1">
                    <mxGeometry width="50" height="50" relative="1" as="geometry">
                        <mxPoint x="10680" y="440" as="sourcePoint"/>
                        <mxPoint x="10680" y="480" as="targetPoint"/>
                    </mxGeometry>
                </mxCell>
                <mxCell id="Z-mKZSxy7FhXRGkzO5_A-5" value="" style="endArrow=classic;html=1;strokeColor=#0C7CBA;strokeWidth=3;" parent="1" edge="1">
                    <mxGeometry width="50" height="50" relative="1" as="geometry">
                        <mxPoint x="13520" y="443.75" as="sourcePoint"/>
                        <mxPoint x="13520" y="503.75" as="targetPoint"/>
                    </mxGeometry>
                </mxCell>
                <mxCell id="Z-mKZSxy7FhXRGkzO5_A-8" value="" style="endArrow=classic;html=1;strokeColor=#0C7CBA;strokeWidth=3;" parent="1" edge="1">
                    <mxGeometry width="50" height="50" relative="1" as="geometry">
                        <mxPoint x="13520" y="613.75" as="sourcePoint"/>
                        <mxPoint x="13520" y="668.75" as="targetPoint"/>
                    </mxGeometry>
                </mxCell>
                <mxCell id="Z-mKZSxy7FhXRGkzO5_A-9" value="" style="endArrow=classic;html=1;strokeColor=#0C7CBA;strokeWidth=3;" parent="1" edge="1">
                    <mxGeometry width="50" height="50" relative="1" as="geometry">
                        <mxPoint x="13190" y="443.75" as="sourcePoint"/>
                        <mxPoint x="13190" y="513.75" as="targetPoint"/>
                    </mxGeometry>
                </mxCell>
                <mxCell id="Z-mKZSxy7FhXRGkzO5_A-10" value="" style="endArrow=classic;html=1;strokeColor=#0C7CBA;strokeWidth=3;" parent="1" edge="1">
                    <mxGeometry width="50" height="50" relative="1" as="geometry">
                        <mxPoint x="13345" y="443.75" as="sourcePoint"/>
                        <mxPoint x="13344.5" y="522.75" as="targetPoint"/>
                    </mxGeometry>
                </mxCell>
                <mxCell id="Z-mKZSxy7FhXRGkzO5_A-11" value="" style="endArrow=classic;html=1;strokeColor=#0C7CBA;strokeWidth=3;" parent="1" target="7u9EDJmj-7bqoUUzfo6h-26" edge="1">
                    <mxGeometry width="50" height="50" relative="1" as="geometry">
                        <mxPoint x="14534" y="443.75" as="sourcePoint"/>
                        <mxPoint x="14660" y="573.75" as="targetPoint"/>
                    </mxGeometry>
                </mxCell>
                <mxCell id="Z-mKZSxy7FhXRGkzO5_A-12" value="" style="endArrow=classic;html=1;strokeColor=#0C7CBA;strokeWidth=3;" parent="1" edge="1">
                    <mxGeometry width="50" height="50" relative="1" as="geometry">
                        <mxPoint x="15070" y="443.75" as="sourcePoint"/>
                        <mxPoint x="15070" y="493.75" as="targetPoint"/>
                    </mxGeometry>
                </mxCell>
                <mxCell id="Z-mKZSxy7FhXRGkzO5_A-15" value="" style="endArrow=classic;html=1;strokeColor=#0C7CBA;strokeWidth=3;" parent="1" edge="1">
                    <mxGeometry width="50" height="50" relative="1" as="geometry">
                        <mxPoint x="17173" y="453.75" as="sourcePoint"/>
                        <mxPoint x="17173" y="517.75" as="targetPoint"/>
                    </mxGeometry>
                </mxCell>
                <mxCell id="Z-mKZSxy7FhXRGkzO5_A-16" value="" style="endArrow=classic;html=1;strokeColor=#0C7CBA;strokeWidth=3;" parent="1" edge="1">
                    <mxGeometry width="50" height="50" relative="1" as="geometry">
                        <mxPoint x="17053" y="453.75" as="sourcePoint"/>
                        <mxPoint x="17083" y="503.75" as="targetPoint"/>
                    </mxGeometry>
                </mxCell>
                <mxCell id="Z-mKZSxy7FhXRGkzO5_A-17" value="" style="endArrow=classic;html=1;strokeColor=#0C7CBA;strokeWidth=3;entryX=0.5;entryY=0;entryDx=0;entryDy=0;" parent="1" target="7u9EDJmj-7bqoUUzfo6h-38" edge="1">
                    <mxGeometry width="50" height="50" relative="1" as="geometry">
                        <mxPoint x="16943" y="453.75" as="sourcePoint"/>
                        <mxPoint x="16823" y="473.75" as="targetPoint"/>
                    </mxGeometry>
                </mxCell>
                <mxCell id="Z-mKZSxy7FhXRGkzO5_A-18" value="" style="endArrow=classic;html=1;strokeColor=#0C7CBA;strokeWidth=3;" parent="1" target="7u9EDJmj-7bqoUUzfo6h-50" edge="1">
                    <mxGeometry width="50" height="50" relative="1" as="geometry">
                        <mxPoint x="16983" y="453.75" as="sourcePoint"/>
                        <mxPoint x="16993" y="603.75" as="targetPoint"/>
                    </mxGeometry>
                </mxCell>
                <mxCell id="Z-mKZSxy7FhXRGkzO5_A-19" value="" style="endArrow=classic;html=1;strokeColor=#0C7CBA;strokeWidth=3;" parent="1" edge="1">
                    <mxGeometry width="50" height="50" relative="1" as="geometry">
                        <mxPoint x="16913" y="453.75" as="sourcePoint"/>
                        <mxPoint x="16873" y="618.75" as="targetPoint"/>
                    </mxGeometry>
                </mxCell>
                <mxCell id="Z-mKZSxy7FhXRGkzO5_A-20" value="" style="endArrow=classic;html=1;strokeColor=#0C7CBA;strokeWidth=3;" parent="1" edge="1">
                    <mxGeometry width="50" height="50" relative="1" as="geometry">
                        <mxPoint x="16923" y="453.75" as="sourcePoint"/>
                        <mxPoint x="16923" y="501.75" as="targetPoint"/>
                    </mxGeometry>
                </mxCell>
                <mxCell id="Z-mKZSxy7FhXRGkzO5_A-21" value="" style="endArrow=classic;html=1;strokeColor=#0C7CBA;strokeWidth=3;" parent="1" edge="1">
                    <mxGeometry width="50" height="50" relative="1" as="geometry">
                        <mxPoint x="16803" y="443.75" as="sourcePoint"/>
                        <mxPoint x="16803" y="513.75" as="targetPoint"/>
                    </mxGeometry>
                </mxCell>
                <mxCell id="Z-mKZSxy7FhXRGkzO5_A-26" value="" style="endArrow=classic;html=1;strokeColor=#0C7CBA;strokeWidth=3;entryX=0.5;entryY=0;entryDx=0;entryDy=0;" parent="1" target="7u9EDJmj-7bqoUUzfo6h-44" edge="1">
                    <mxGeometry width="50" height="50" relative="1" as="geometry">
                        <mxPoint x="17878" y="443.75" as="sourcePoint"/>
                        <mxPoint x="17923" y="408.75" as="targetPoint"/>
                    </mxGeometry>
                </mxCell>
                <mxCell id="Z-mKZSxy7FhXRGkzO5_A-27" value="" style="endArrow=classic;html=1;strokeColor=#0C7CBA;strokeWidth=3;entryX=0.75;entryY=0;entryDx=0;entryDy=0;" parent="1" target="7u9EDJmj-7bqoUUzfo6h-46" edge="1">
                    <mxGeometry width="50" height="50" relative="1" as="geometry">
                        <mxPoint x="17833" y="443.75" as="sourcePoint"/>
                        <mxPoint x="17783" y="523.75" as="targetPoint"/>
                    </mxGeometry>
                </mxCell>
                <mxCell id="Z-mKZSxy7FhXRGkzO5_A-28" value="" style="endArrow=classic;html=1;strokeColor=#0C7CBA;strokeWidth=3;" parent="1" target="7u9EDJmj-7bqoUUzfo6h-42" edge="1">
                    <mxGeometry width="50" height="50" relative="1" as="geometry">
                        <mxPoint x="19000" y="442.12" as="sourcePoint"/>
                        <mxPoint x="19010" y="511.87" as="targetPoint"/>
                    </mxGeometry>
                </mxCell>
                <mxCell id="Z-mKZSxy7FhXRGkzO5_A-29" value="" style="endArrow=classic;html=1;strokeColor=#0C7CBA;strokeWidth=3;entryX=0.5;entryY=0;entryDx=0;entryDy=0;" parent="1" target="7u9EDJmj-7bqoUUzfo6h-52" edge="1">
                    <mxGeometry width="50" height="50" relative="1" as="geometry">
                        <mxPoint x="20310" y="420.75" as="sourcePoint"/>
                        <mxPoint x="20330" y="450.75" as="targetPoint"/>
                    </mxGeometry>
                </mxCell>
                <mxCell id="IONXNcW0mk-mATU2QzAT-8" value="&lt;div&gt;&lt;br&gt;&lt;/div&gt;&lt;div&gt;&lt;br&gt;&lt;/div&gt;&lt;font style=&quot;color: rgb(0 , 0 , 0) ; font-family: &amp;#34;helvetica&amp;#34; ; font-size: 48px ; font-style: normal ; font-weight: 400 ; letter-spacing: normal ; text-indent: 0px ; text-transform: none ; word-spacing: 0px ; background-color: rgb(248 , 249 , 250)&quot;&gt;&lt;div&gt;Caida del Imperio romano&amp;nbsp;de&amp;nbsp;Occidente&lt;/div&gt;&lt;/font&gt;&lt;font style=&quot;color: rgb(0 , 0 , 0) ; font-family: &amp;#34;helvetica&amp;#34; ; font-size: 48px ; font-style: normal ; font-weight: 400 ; letter-spacing: normal ; text-indent: 0px ; text-transform: none ; word-spacing: 0px ; background-color: rgb(248 , 249 , 250)&quot;&gt;&lt;div&gt;Año 476&lt;/div&gt;&lt;/font&gt;" style="text;html=1;strokeColor=none;fillColor=none;spacing=5;spacingTop=-20;whiteSpace=wrap;overflow=hidden;rounded=0;align=center;" parent="1" vertex="1">
                    <mxGeometry x="11170" y="524" width="480" height="228" as="geometry"/>
                </mxCell>
                <mxCell id="IONXNcW0mk-mATU2QzAT-9" value="&lt;font style=&quot;font-size: 48px&quot;&gt;&lt;font&gt;&lt;font&gt;Caida del Imperio romano&amp;nbsp;&lt;/font&gt;&lt;font&gt;d&lt;/font&gt;&lt;/font&gt;&lt;font&gt;e&amp;nbsp;&lt;font&gt;Oriente&lt;br&gt;Año 1453&lt;/font&gt;&lt;/font&gt;&lt;/font&gt;" style="text;html=1;strokeColor=none;fillColor=none;spacing=5;spacingTop=-20;whiteSpace=wrap;overflow=hidden;rounded=0;align=center;" parent="1" vertex="1">
                    <mxGeometry x="12020" y="545" width="480" height="170" as="geometry"/>
                </mxCell>
                <mxCell id="uObiRmeDUVNCLVn5ge0O-1" value="Text" style="text;html=1;strokeColor=none;fillColor=none;align=center;verticalAlign=middle;whiteSpace=wrap;rounded=0;" parent="1" vertex="1">
                    <mxGeometry x="21643.333333333332" y="415.0000000000002" width="60" height="30" as="geometry"/>
                </mxCell>
            </root>
        </mxGraphModel>
    </diagram>
    <diagram id="sLTM5XDebFbrUj03RXZ2" name="Page-2">
        <mxGraphModel dx="628" dy="309" grid="1" gridSize="10" guides="1" tooltips="1" connect="1" arrows="1" fold="1" page="1" pageScale="1" pageWidth="827" pageHeight="1169" math="0" shadow="0">
            <root>
                <mxCell id="3cuFV9wehe5dB6hTg9pu-0"/>
                <mxCell id="3cuFV9wehe5dB6hTg9pu-1" parent="3cuFV9wehe5dB6hTg9pu-0"/>
            </root>
        </mxGraphModel>
    </diagram>
</mxfile>